<svg xmlns="http://www.w3.org/2000/svg" xmlns:xlink="http://www.w3.org/1999/xlink" width="500" zoomAndPan="magnify" viewBox="0 0 375 374.999991" height="500" preserveAspectRatio="xMidYMid meet" version="1.0"><defs><g/><clipPath id="id1"><path d="M 20.875 208.207031 L 353.875 208.207031 L 353.875 355.90625 L 20.875 355.90625 Z M 20.875 208.207031 " clip-rule="nonzero"/></clipPath><clipPath id="id2"><path d="M 20.875 18.84375 L 353.875 18.84375 L 353.875 166.59375 L 20.875 166.59375 Z M 20.875 18.84375 " clip-rule="nonzero"/></clipPath><clipPath id="id3"><path d="M 78.769531 208.742188 L 296.265625 208.742188 L 296.265625 296.265625 L 78.769531 296.265625 Z M 78.769531 208.742188 " clip-rule="nonzero"/></clipPath><clipPath id="id4"><path d="M 78.769531 78.769531 L 296.265625 78.769531 L 296.265625 166.519531 L 78.769531 166.519531 Z M 78.769531 78.769531 " clip-rule="nonzero"/></clipPath></defs><g clip-path="url(#id1)"><path fill="#545454" d="M 187.320312 355.90625 C 95.589844 355.90625 20.875 281.191406 20.875 189.351562 C 20.875 97.507812 95.589844 22.90625 187.320312 22.90625 C 279.046875 22.90625 353.761719 97.621094 353.761719 189.351562 C 353.875 281.191406 279.160156 355.90625 187.320312 355.90625 Z M 187.320312 25.722656 C 97.054688 25.722656 23.691406 99.085938 23.691406 189.351562 C 23.691406 279.613281 97.167969 353.089844 187.320312 353.089844 C 277.472656 353.089844 351.058594 279.613281 351.058594 189.351562 C 351.058594 99.085938 277.582031 25.722656 187.320312 25.722656 Z M 187.320312 25.722656 " fill-opacity="1" fill-rule="nonzero"/></g><path stroke-linecap="round" transform="matrix(2.257108, 0, 0, 2.066985, 4.392975, 187.308065)" fill="none" stroke-linejoin="miter" d="M 0.500846 0.000256049 L 42.365119 0.000256049 " stroke="#545454" stroke-width="1" stroke-opacity="1" stroke-miterlimit="4"/><path stroke-linecap="round" transform="matrix(2.257108, 0, 0, 2.066985, 274.159702, 187.308065)" fill="none" stroke-linejoin="miter" d="M 0.500357 0.000256049 L 42.364631 0.000256049 " stroke="#545454" stroke-width="1" stroke-opacity="1" stroke-miterlimit="4"/><g clip-path="url(#id2)"><path fill="#545454" d="M 187.320312 351.84375 C 95.589844 351.84375 20.875 277.128906 20.875 185.289062 C 20.875 93.445312 95.589844 18.84375 187.320312 18.84375 C 279.046875 18.84375 353.761719 93.558594 353.761719 185.289062 C 353.875 277.128906 279.160156 351.84375 187.320312 351.84375 Z M 187.320312 21.660156 C 97.054688 21.660156 23.691406 95.023438 23.691406 185.289062 C 23.691406 275.550781 97.167969 349.027344 187.320312 349.027344 C 277.472656 349.027344 351.058594 275.550781 351.058594 185.289062 C 351.058594 95.023438 277.582031 21.660156 187.320312 21.660156 Z M 187.320312 21.660156 " fill-opacity="1" fill-rule="nonzero"/></g><g fill="#545454" fill-opacity="1"><g transform="translate(48.896268, 242.099967)"><g><path d="M 11.390625 11.234375 C 9.765625 11.992188 8.191406 11.992188 6.671875 11.234375 C 5.148438 10.484375 3.925781 9.113281 3 7.125 C 1.882812 4.71875 1.289062 2.753906 1.21875 1.234375 L 2.5625 0.609375 C 2.632812 2.296875 3.179688 4.226562 4.203125 6.40625 C 4.953125 8.019531 5.914062 9.125 7.09375 9.71875 C 8.269531 10.3125 9.457031 10.332031 10.65625 9.78125 C 11.394531 9.425781 11.9375 8.976562 12.28125 8.4375 C 12.625 7.90625 12.832031 7.195312 12.90625 6.3125 C 12.976562 5.425781 12.925781 4.1875 12.75 2.59375 C 12.5 0.269531 12.59375 -1.457031 13.03125 -2.59375 C 13.476562 -3.726562 14.367188 -4.601562 15.703125 -5.21875 C 17.160156 -5.90625 18.617188 -5.890625 20.078125 -5.171875 C 21.546875 -4.460938 22.695312 -3.207031 23.53125 -1.40625 C 24.394531 0.425781 24.863281 2.316406 24.9375 4.265625 L 23.515625 4.3125 C 23.429688 2.375 23.039062 0.664062 22.34375 -0.8125 C 21.664062 -2.257812 20.789062 -3.253906 19.71875 -3.796875 C 18.644531 -4.347656 17.535156 -4.351562 16.390625 -3.8125 C 15.671875 -3.476562 15.140625 -3.066406 14.796875 -2.578125 C 14.453125 -2.097656 14.238281 -1.472656 14.15625 -0.703125 C 14.070312 0.0664062 14.109375 1.296875 14.265625 2.984375 C 14.453125 4.765625 14.476562 6.15625 14.34375 7.15625 C 14.207031 8.15625 13.90625 8.976562 13.4375 9.625 C 12.96875 10.28125 12.285156 10.816406 11.390625 11.234375 Z M 11.390625 11.234375 "/></g></g></g><g fill="#545454" fill-opacity="1"><g transform="translate(57.440555, 260.319527)"><g><path d="M 20.875 11.515625 C 18.03125 13.441406 15.300781 14.253906 12.6875 13.953125 C 10.070312 13.648438 7.914062 12.25 6.21875 9.75 C 4.539062 7.257812 4.046875 4.742188 4.734375 2.203125 C 5.429688 -0.335938 7.210938 -2.578125 10.078125 -4.515625 C 12.921875 -6.429688 15.644531 -7.226562 18.25 -6.90625 C 20.851562 -6.582031 22.992188 -5.175781 24.671875 -2.6875 C 26.359375 -0.195312 26.859375 2.3125 26.171875 4.84375 C 25.484375 7.375 23.71875 9.597656 20.875 11.515625 Z M 10.96875 -3.140625 C 8.394531 -1.398438 6.796875 0.515625 6.171875 2.609375 C 5.546875 4.703125 5.957031 6.816406 7.40625 8.953125 C 8.863281 11.109375 10.671875 12.285156 12.828125 12.484375 C 14.984375 12.679688 17.359375 11.90625 19.953125 10.15625 C 22.535156 8.414062 24.128906 6.507812 24.734375 4.4375 C 25.335938 2.363281 24.914062 0.257812 23.46875 -1.875 C 22.03125 -4.007812 20.222656 -5.179688 18.046875 -5.390625 C 15.878906 -5.609375 13.519531 -4.859375 10.96875 -3.140625 Z M 10.96875 -3.140625 "/></g></g></g><g fill="#545454" fill-opacity="1"><g transform="translate(72.840637, 282.095352)"><g><path d="M 3.09375 3.34375 L 2.078125 2.25 L 17.9375 -12.421875 L 25.984375 -3.734375 L 24.984375 -2.796875 L 17.953125 -10.390625 L 11.21875 -4.171875 L 17.859375 3 L 16.828125 3.953125 L 10.1875 -3.21875 Z M 3.09375 3.34375 "/></g></g></g><g fill="#545454" fill-opacity="1"><g transform="translate(85.500053, 295.505844)"><g><path d="M 6.65625 5.578125 L 5.5 4.609375 L 18.484375 -10.859375 L 13.09375 -15.375 L 14 -16.453125 L 25.9375 -6.4375 L 25.03125 -5.359375 L 19.640625 -9.890625 Z M 6.65625 5.578125 "/></g></g></g><g fill="#545454" fill-opacity="1"><g transform="translate(100.451957, 308.254831)"><g><path d="M 17.5 10.25 L 16.4375 9.625 L 20.765625 -7.171875 C 21.117188 -8.554688 21.429688 -9.675781 21.703125 -10.53125 C 21.140625 -9.875 20.445312 -9.140625 19.625 -8.328125 C 18.8125 -7.515625 14.5625 -3.394531 6.875 4.03125 L 5.78125 3.390625 L 11.5625 -18.28125 L 12.9375 -17.46875 L 9.15625 -3.546875 C 9 -2.984375 8.859375 -2.460938 8.734375 -1.984375 C 8.609375 -1.503906 8.476562 -1.0625 8.34375 -0.65625 C 8.21875 -0.25 8.09375 0.144531 7.96875 0.53125 C 7.851562 0.914062 7.722656 1.296875 7.578125 1.671875 C 8.460938 0.640625 9.929688 -0.863281 11.984375 -2.84375 L 21.796875 -12.296875 L 23.234375 -11.453125 L 19.359375 3.734375 C 18.921875 5.484375 18.523438 6.875 18.171875 7.90625 C 18.648438 7.34375 19.175781 6.769531 19.75 6.1875 C 20.320312 5.601562 24.492188 1.488281 32.265625 -6.15625 L 33.59375 -5.390625 Z M 17.5 10.25 "/></g></g></g><g fill="#545454" fill-opacity="1"><g transform="translate(127.419826, 323.192116)"><g><path d="M 15.265625 -2.515625 L 7.03125 -5.53125 L 1.5625 0.578125 L 0 0 L 15.640625 -17.375 L 16.546875 -17.046875 L 17.0625 6.265625 L 15.453125 5.6875 Z M 8 -6.625 L 15.265625 -3.96875 L 15.21875 -12.28125 C 15.1875 -12.945312 15.195312 -13.847656 15.25 -14.984375 C 14.664062 -14.191406 14.097656 -13.484375 13.546875 -12.859375 Z M 8 -6.625 "/></g></g></g><g fill="#545454" fill-opacity="1"><g transform="translate(147.806656, 330.413436)"><g><path d="M 6.40625 -8.28125 L 4.46875 0.9375 L 3 0.625 L 7.453125 -20.515625 L 12.484375 -19.453125 C 15.109375 -18.890625 16.945312 -17.992188 18 -16.765625 C 19.050781 -15.535156 19.375 -13.945312 18.96875 -12 C 18.664062 -10.582031 18.035156 -9.46875 17.078125 -8.65625 C 16.128906 -7.84375 14.84375 -7.378906 13.21875 -7.265625 L 16.9375 3.578125 L 15.1875 3.203125 L 11.65625 -7.171875 Z M 6.6875 -9.546875 L 10.71875 -8.6875 C 12.5 -8.3125 13.96875 -8.414062 15.125 -9 C 16.28125 -9.59375 17.019531 -10.671875 17.34375 -12.234375 C 17.6875 -13.835938 17.445312 -15.101562 16.625 -16.03125 C 15.8125 -16.96875 14.316406 -17.664062 12.140625 -18.125 L 8.640625 -18.875 Z M 6.6875 -9.546875 "/></g></g></g><g fill="#545454" fill-opacity="1"><g transform="translate(168.788758, 334.551723)"><g><path d="M 14.84375 1.015625 L 3.0625 0.203125 L 4.546875 -21.359375 L 16.328125 -20.546875 L 16.234375 -19.171875 L 5.9375 -19.875 L 5.375 -11.703125 L 15.09375 -11.03125 L 15 -9.640625 L 5.28125 -10.3125 L 4.640625 -1.078125 L 14.9375 -0.375 Z M 14.84375 1.015625 "/></g></g></g><g fill="#545454" fill-opacity="1"><g transform="translate(199.278881, 335.234692)"><g><path d="M 14.734375 -2.015625 L 3.03125 -0.421875 L 0.09375 -21.828125 L 11.796875 -23.421875 L 11.984375 -22.0625 L 1.765625 -20.671875 L 2.875 -12.5625 L 12.53125 -13.875 L 12.734375 -12.5 L 3.078125 -11.1875 L 4.328125 -2 L 14.546875 -3.390625 Z M 14.734375 -2.015625 "/></g></g></g><g fill="#545454" fill-opacity="1"><g transform="translate(219.361471, 332.40904)"><g><path d="M 18 -5.359375 L 16.53125 -4.921875 L -1.203125 -19.65625 L -1.3125 -19.625 C -0.550781 -17.46875 -0.00390625 -15.832031 0.328125 -14.71875 L 4.328125 -1.28125 L 2.9375 -0.875 L -3.21875 -21.59375 L -1.78125 -22.015625 L 15.9375 -7.296875 L 16.03125 -7.3125 C 15.4375 -8.988281 14.910156 -10.597656 14.453125 -12.140625 L 10.4375 -25.65625 L 11.84375 -26.078125 Z M 18 -5.359375 "/></g></g></g><g fill="#545454" fill-opacity="1"><g transform="translate(243.824219, 324.796162)"><g><path d="M 5.515625 -14.890625 L 12.640625 -18.4375 L 17.03125 -9.609375 C 15.539062 -7.890625 13.632812 -6.445312 11.3125 -5.28125 C 8.25 -3.769531 5.472656 -3.46875 2.984375 -4.375 C 0.503906 -5.289062 -1.519531 -7.332031 -3.09375 -10.5 C -4.070312 -12.46875 -4.535156 -14.410156 -4.484375 -16.328125 C -4.429688 -18.253906 -3.859375 -20.003906 -2.765625 -21.578125 C -1.671875 -23.160156 -0.144531 -24.4375 1.8125 -25.40625 C 3.914062 -26.445312 6 -27.003906 8.0625 -27.078125 L 8.125 -25.578125 C 6.0625 -25.515625 4.128906 -25.035156 2.328125 -24.140625 C -0.210938 -22.878906 -1.84375 -21.085938 -2.5625 -18.765625 C -3.28125 -16.453125 -2.976562 -13.960938 -1.65625 -11.296875 C -0.195312 -8.367188 1.601562 -6.523438 3.75 -5.765625 C 5.90625 -5.003906 8.363281 -5.304688 11.125 -6.671875 C 12.90625 -7.554688 14.296875 -8.554688 15.296875 -9.671875 L 11.90625 -16.5 L 6.140625 -13.640625 Z M 5.515625 -14.890625 "/></g></g></g><g fill="#545454" fill-opacity="1"><g transform="translate(265.979839, 313.099628)"><g><path d="M 2.5625 -1.6875 L -9.296875 -19.75 L -8.046875 -20.5625 L 3.8125 -2.5 Z M 2.5625 -1.6875 "/></g></g></g><g fill="#545454" fill-opacity="1"><g transform="translate(275.160913, 307.348931)"><g><path d="M 14.34375 -12.125 L 13.171875 -11.125 L -8.96875 -17.53125 L -9.0625 -17.453125 C -7.5 -15.796875 -6.34375 -14.519531 -5.59375 -13.625 L 3.453125 -2.921875 L 2.34375 -1.96875 L -11.609375 -18.46875 L -10.46875 -19.4375 L 11.6875 -13.078125 L 11.75 -13.140625 C 10.53125 -14.429688 9.40625 -15.6875 8.375 -16.90625 L -0.734375 -27.671875 L 0.390625 -28.625 Z M 14.34375 -12.125 "/></g></g></g><g fill="#545454" fill-opacity="1"><g transform="translate(294.245269, 290.611801)"><g><path d="M 9.765625 -11.21875 L 2.015625 -2.3125 L -14.28125 -16.5 L -6.53125 -25.40625 L -5.5 -24.5 L -12.265625 -16.71875 L -6.09375 -11.34375 L 0.296875 -18.6875 L 1.359375 -17.78125 L -5.03125 -10.4375 L 1.953125 -4.34375 L 8.71875 -12.125 Z M 9.765625 -11.21875 "/></g></g></g><g fill="#545454" fill-opacity="1"><g transform="translate(307.237572, 275.342888)"><g><path d="M 8.171875 -12.421875 L 1.6875 -2.5625 L -16.359375 -14.4375 L -9.875 -24.296875 L -8.734375 -23.546875 L -14.40625 -14.9375 L -7.5625 -10.4375 L -2.203125 -18.5625 L -1.046875 -17.796875 L -6.40625 -9.671875 L 1.34375 -4.578125 L 7.015625 -13.1875 Z M 8.171875 -12.421875 "/></g></g></g><g fill="#545454" fill-opacity="1"><g transform="translate(318.12397, 258.438674)"><g><path d="M -6.5625 -8.15625 L 1.953125 -4.125 L 1.3125 -2.765625 L -18.21875 -12.015625 L -16.015625 -16.65625 C -14.867188 -19.09375 -13.570312 -20.675781 -12.125 -21.40625 C -10.675781 -22.144531 -9.050781 -22.085938 -7.25 -21.234375 C -5.945312 -20.617188 -5.007812 -19.75 -4.4375 -18.625 C -3.863281 -17.507812 -3.710938 -16.148438 -3.984375 -14.546875 L 7.421875 -15.640625 L 6.640625 -14.015625 L -4.265625 -13.015625 Z M -7.734375 -8.71875 L -5.96875 -12.4375 C -5.1875 -14.09375 -4.945312 -15.550781 -5.25 -16.8125 C -5.550781 -18.070312 -6.421875 -19.039062 -7.859375 -19.71875 C -9.347656 -20.425781 -10.640625 -20.488281 -11.734375 -19.90625 C -12.828125 -19.332031 -13.851562 -18.039062 -14.8125 -16.03125 L -16.34375 -12.796875 Z M -7.734375 -8.71875 "/></g></g></g><g fill="#545454" fill-opacity="1"><g transform="translate(77.298898, 125.319013)"><g><path d="M 1 -15.4375 L -3.8125 -8.09375 L 0.921875 -1.40625 L 0 0 L -13.390625 -19.15625 L -12.875 -19.96875 L 9.953125 -15.203125 L 9.015625 -13.78125 Z M -4.65625 -9.296875 L -0.40625 -15.765625 L -8.546875 -17.578125 C -9.203125 -17.710938 -10.078125 -17.925781 -11.171875 -18.21875 C -10.523438 -17.488281 -9.960938 -16.78125 -9.484375 -16.09375 Z M -4.65625 -9.296875 "/></g></g></g><g fill="#545454" fill-opacity="1"><g transform="translate(87.464523, 109.932792)"><g><path d="M 5.671875 -14.96875 C 7.035156 -13.78125 7.675781 -12.335938 7.59375 -10.640625 C 7.507812 -8.941406 6.742188 -7.265625 5.296875 -5.609375 C 3.554688 -3.617188 2.003906 -2.285156 0.640625 -1.609375 L -0.484375 -2.609375 C 1.035156 -3.347656 2.585938 -4.625 4.171875 -6.4375 C 5.347656 -7.78125 5.972656 -9.109375 6.046875 -10.421875 C 6.117188 -11.734375 5.65625 -12.820312 4.65625 -13.6875 C 4.039062 -14.226562 3.414062 -14.546875 2.78125 -14.640625 C 2.144531 -14.742188 1.40625 -14.644531 0.5625 -14.34375 C -0.28125 -14.050781 -1.390625 -13.503906 -2.765625 -12.703125 C -4.796875 -11.546875 -6.421875 -10.941406 -7.640625 -10.890625 C -8.859375 -10.835938 -10.019531 -11.296875 -11.125 -12.265625 C -12.34375 -13.328125 -12.914062 -14.671875 -12.84375 -16.296875 C -12.78125 -17.921875 -12.09375 -19.484375 -10.78125 -20.984375 C -9.445312 -22.503906 -7.898438 -23.691406 -6.140625 -24.546875 L -5.515625 -23.25 C -7.265625 -22.394531 -8.679688 -21.351562 -9.765625 -20.125 C -10.804688 -18.925781 -11.359375 -17.722656 -11.421875 -16.515625 C -11.492188 -15.316406 -11.050781 -14.300781 -10.09375 -13.46875 C -9.5 -12.945312 -8.910156 -12.625 -8.328125 -12.5 C -7.753906 -12.382812 -7.097656 -12.441406 -6.359375 -12.671875 C -5.617188 -12.898438 -4.503906 -13.429688 -3.015625 -14.265625 C -1.460938 -15.140625 -0.203125 -15.71875 0.765625 -16 C 1.742188 -16.28125 2.625 -16.335938 3.40625 -16.171875 C 4.1875 -16.015625 4.941406 -15.613281 5.671875 -14.96875 Z M 5.671875 -14.96875 "/></g></g></g><g fill="#545454" fill-opacity="1"><g transform="translate(98.286077, 97.275356)"><g><path d="M 14.3125 -12.0625 L 13.15625 -11.078125 L 6.3125 -19.203125 L -3.359375 -11.0625 L 3.484375 -2.9375 L 2.34375 -1.96875 L -11.578125 -18.5 L -10.4375 -19.46875 L -4.25 -12.125 L 5.421875 -20.265625 L -0.765625 -27.609375 L 0.390625 -28.59375 Z M 14.3125 -12.0625 "/></g></g></g><g fill="#545454" fill-opacity="1"><g transform="translate(115.217566, 83.328747)"><g><path d="M 2.609375 -1.609375 L -8.71875 -20.015625 L -7.4375 -20.796875 L 3.140625 -3.609375 L 11.921875 -9.015625 L 12.671875 -7.796875 Z M 2.609375 -1.609375 "/></g></g></g><g fill="#545454" fill-opacity="1"><g transform="translate(128.762815, 74.980633)"><g><path d="M 13.578125 -6.078125 L 2.796875 -1.25 L -6.03125 -20.96875 L 4.75 -25.796875 L 5.3125 -24.546875 L -4.109375 -20.328125 L -0.765625 -12.859375 L 8.125 -16.84375 L 8.6875 -15.5625 L -0.203125 -11.578125 L 3.59375 -3.125 L 13.015625 -7.34375 Z M 13.578125 -6.078125 "/></g></g></g><g fill="#545454" fill-opacity="1"><g transform="translate(144.348501, 68.048407)"><g><path d="M 4.90625 -11.671875 L 7.59375 -24.796875 L 9.140625 -25.265625 L 6.03125 -10.515625 L 8.421875 -2.5 L 6.9375 -2.0625 L 4.59375 -9.953125 L -6.171875 -20.703125 L -4.515625 -21.203125 Z M 4.90625 -11.671875 "/></g></g></g><g fill="#545454" fill-opacity="1"><g transform="translate(168.664244, 61.657396)"><g><path d="M 10.609375 -21.484375 C 7.898438 -21.265625 5.835938 -20.226562 4.421875 -18.375 C 3.015625 -16.519531 2.429688 -14.09375 2.671875 -11.09375 C 2.910156 -8.007812 3.828125 -5.675781 5.421875 -4.09375 C 7.023438 -2.507812 9.191406 -1.828125 11.921875 -2.046875 C 13.722656 -2.191406 15.367188 -2.5625 16.859375 -3.15625 L 16.96875 -1.8125 C 15.582031 -1.195312 13.828125 -0.804688 11.703125 -0.640625 C 8.671875 -0.390625 6.207031 -1.175781 4.3125 -3 C 2.414062 -4.820312 1.328125 -7.488281 1.046875 -11 C 0.867188 -13.1875 1.125 -15.144531 1.8125 -16.875 C 2.507812 -18.601562 3.597656 -19.984375 5.078125 -21.015625 C 6.566406 -22.054688 8.347656 -22.660156 10.421875 -22.828125 C 12.515625 -22.992188 14.421875 -22.753906 16.140625 -22.109375 L 15.640625 -20.703125 C 14.015625 -21.359375 12.335938 -21.617188 10.609375 -21.484375 Z M 10.609375 -21.484375 "/></g></g></g><g fill="#545454" fill-opacity="1"><g transform="translate(187.410627, 59.982157)"><g><path d="M 22.078125 -8.984375 C 21.785156 -5.566406 20.695312 -2.9375 18.8125 -1.09375 C 16.9375 0.75 14.492188 1.539062 11.484375 1.28125 C 8.484375 1.03125 6.21875 -0.160156 4.6875 -2.296875 C 3.15625 -4.441406 2.539062 -7.234375 2.84375 -10.671875 C 3.132812 -14.097656 4.222656 -16.71875 6.109375 -18.53125 C 7.992188 -20.351562 10.429688 -21.132812 13.421875 -20.875 C 16.421875 -20.625 18.6875 -19.4375 20.21875 -17.3125 C 21.757812 -15.1875 22.378906 -12.410156 22.078125 -8.984375 Z M 4.453125 -10.5 C 4.191406 -7.414062 4.675781 -4.972656 5.90625 -3.171875 C 7.132812 -1.367188 9.035156 -0.359375 11.609375 -0.140625 C 14.203125 0.0859375 16.253906 -0.570312 17.765625 -2.125 C 19.285156 -3.6875 20.175781 -6.019531 20.4375 -9.125 C 20.707031 -12.226562 20.226562 -14.664062 19 -16.4375 C 17.769531 -18.207031 15.867188 -19.203125 13.296875 -19.421875 C 10.734375 -19.648438 8.6875 -18.988281 7.15625 -17.4375 C 5.625 -15.882812 4.722656 -13.570312 4.453125 -10.5 Z M 4.453125 -10.5 "/></g></g></g><g fill="#545454" fill-opacity="1"><g transform="translate(210.466085, 62.187795)"><g><path d="M 19.359375 -11 C 18.847656 -8.96875 17.765625 -7.585938 16.109375 -6.859375 C 14.460938 -6.140625 12.378906 -6.097656 9.859375 -6.734375 L 6.609375 -7.5625 L 4.421875 1.109375 L 2.96875 0.75 L 8.25 -20.203125 L 13.390625 -18.90625 C 18.378906 -17.644531 20.367188 -15.007812 19.359375 -11 Z M 6.921875 -8.8125 L 9.8125 -8.078125 C 12.164062 -7.484375 13.96875 -7.441406 15.21875 -7.953125 C 16.476562 -8.460938 17.328125 -9.59375 17.765625 -11.34375 C 18.171875 -12.957031 17.972656 -14.28125 17.171875 -15.3125 C 16.378906 -16.34375 14.9375 -17.117188 12.84375 -17.640625 L 9.375 -18.53125 Z M 6.921875 -8.8125 "/></g></g></g><g fill="#545454" fill-opacity="1"><g transform="translate(227.900935, 66.642811)"><g><path d="M 13.78125 5.59375 L 2.84375 1.15625 L 10.96875 -18.875 L 21.90625 -14.4375 L 21.390625 -13.15625 L 11.84375 -17.03125 L 8.765625 -9.4375 L 17.78125 -5.78125 L 17.25 -4.5 L 8.234375 -8.15625 L 4.75 0.4375 L 14.296875 4.3125 Z M 13.78125 5.59375 "/></g></g></g><g fill="#545454" fill-opacity="1"><g transform="translate(243.699595, 73.117782)"><g><path d="M 2.671875 1.515625 L 13.328125 -17.28125 L 14.625 -16.546875 L 4.671875 1.015625 L 13.640625 6.09375 L 12.9375 7.328125 Z M 2.671875 1.515625 "/></g></g></g><g fill="#545454" fill-opacity="1"><g transform="translate(257.529001, 80.879556)"><g><path d="M 15.34375 2.09375 L 8.359375 -3.21875 L 1.328125 1.015625 L 0 0 L 20.0625 -12 L 20.84375 -11.40625 L 14.453125 11.015625 L 13.09375 9.984375 Z M 9.59375 -3.96875 L 15.75 0.71875 L 18.15625 -7.265625 C 18.332031 -7.898438 18.609375 -8.753906 18.984375 -9.828125 C 18.203125 -9.242188 17.453125 -8.738281 16.734375 -8.3125 Z M 9.59375 -3.96875 "/></g></g></g><g fill="#545454" fill-opacity="1"><g transform="translate(272.134186, 91.828688)"><g><path d="M 12.953125 13.59375 L 11.90625 12.484375 L 16.96875 -10.015625 L 16.875 -10.09375 C 15.300781 -8.4375 14.09375 -7.207031 13.25 -6.40625 L 3.109375 3.265625 L 2.109375 2.21875 L 17.75 -12.6875 L 18.78125 -11.609375 L 13.75 10.875 L 13.828125 10.953125 C 15.035156 9.648438 16.21875 8.445312 17.375 7.34375 L 27.578125 -2.375 L 28.59375 -1.3125 Z M 12.953125 13.59375 "/></g></g></g><g fill="#545454" fill-opacity="1"><g transform="translate(287.152859, 107.611575)"><g><path d="M 20 10.015625 C 16.988281 12.035156 14.179688 12.773438 11.578125 12.234375 C 8.972656 11.691406 6.644531 9.894531 4.59375 6.84375 L 1.703125 2.546875 L 19.640625 -9.5 L 22.90625 -4.65625 C 24.820312 -1.789062 25.535156 0.882812 25.046875 3.375 C 24.554688 5.875 22.875 8.085938 20 10.015625 Z M 19.03125 8.6875 C 21.601562 6.96875 23.097656 5.019531 23.515625 2.84375 C 23.941406 0.675781 23.304688 -1.671875 21.609375 -4.203125 L 19.390625 -7.515625 L 3.65625 3.046875 L 5.640625 6.03125 C 9.242188 11.382812 13.707031 12.269531 19.03125 8.6875 Z M 19.03125 8.6875 "/></g></g></g><g clip-path="url(#id3)"><path fill="#545454" d="M 187.480469 296.265625 C 127.566406 296.265625 78.769531 247.46875 78.769531 187.480469 C 78.769531 127.492188 127.566406 78.769531 187.480469 78.769531 C 247.394531 78.769531 296.195312 127.566406 296.195312 187.480469 C 296.265625 247.46875 247.46875 296.265625 187.480469 296.265625 Z M 187.480469 80.609375 C 128.523438 80.609375 80.609375 128.523438 80.609375 187.480469 C 80.609375 246.4375 128.597656 294.425781 187.480469 294.425781 C 246.363281 294.425781 294.425781 246.4375 294.425781 187.480469 C 294.425781 128.523438 246.4375 80.609375 187.480469 80.609375 Z M 187.480469 80.609375 " fill-opacity="1" fill-rule="nonzero"/></g><g clip-path="url(#id4)"><path fill="#545454" d="M 187.480469 296.265625 C 127.566406 296.265625 78.769531 247.46875 78.769531 187.480469 C 78.769531 127.492188 127.566406 78.769531 187.480469 78.769531 C 247.394531 78.769531 296.195312 127.566406 296.195312 187.480469 C 296.265625 247.46875 247.46875 296.265625 187.480469 296.265625 Z M 187.480469 80.609375 C 128.523438 80.609375 80.609375 128.523438 80.609375 187.480469 C 80.609375 246.4375 128.597656 294.425781 187.480469 294.425781 C 246.363281 294.425781 294.425781 246.4375 294.425781 187.480469 C 294.425781 128.523438 246.4375 80.609375 187.480469 80.609375 Z M 187.480469 80.609375 " fill-opacity="1" fill-rule="nonzero"/></g><g fill="#545454" fill-opacity="1"><g transform="translate(116.195973, 206.493905)"><g><path d="M 73.0625 -14.332031 C 72.429688 -14.824219 70.183594 -15.035156 58.378906 -15.386719 C 59.855469 -21.425781 61.261719 -27.328125 62.523438 -32.667969 C 64.351562 -40.253906 65.96875 -46.859375 66.878906 -50.863281 C 68.214844 -56.90625 68.988281 -61.332031 69.339844 -64.421875 C 69.621094 -67.582031 69.480469 -69.832031 67.863281 -70.394531 C 64.632812 -71.515625 60.417969 -64.070312 45.3125 -34.214844 C 42.292969 -28.242188 39.132812 -22.058594 35.96875 -16.019531 C 25.851562 -16.296875 16.507812 -16.507812 15.175781 -16.789062 C 14.402344 -16.929688 13.699219 -16.507812 13.558594 -15.738281 C 13.417969 -15.035156 13.910156 -14.332031 14.613281 -14.191406 C 16.089844 -13.839844 23.113281 -13.628906 34.632812 -13.347656 C 28.945312 -2.527344 23.394531 7.304688 18.96875 13.277344 C 16.648438 16.4375 14.472656 17.492188 12.503906 16.296875 C 7.304688 13.277344 3.300781 -4.566406 8.710938 -16.71875 C 13.347656 -27.1875 22.269531 -26.835938 28.945312 -24.730469 C 29.648438 -24.519531 30.417969 -24.941406 30.628906 -25.640625 C 30.839844 -26.34375 30.488281 -27.117188 29.71875 -27.328125 C 18.828125 -30.769531 10.46875 -27.398438 6.253906 -17.773438 C 0.914062 -5.832031 3.652344 14.332031 11.171875 18.6875 C 13.066406 19.742188 16.859375 20.726562 21.144531 14.894531 C 25.851562 8.570312 31.683594 -1.898438 37.585938 -13.277344 C 38.640625 -13.207031 39.691406 -13.207031 40.746094 -13.207031 C 45.382812 -13.066406 50.371094 -12.925781 55.007812 -12.785156 C 44.117188 33.582031 44.117188 39.691406 46.648438 40.746094 C 46.929688 40.816406 47.140625 40.886719 47.351562 40.886719 C 48.753906 40.886719 49.949219 39.132812 50.933594 37.445312 C 51.285156 36.8125 51.074219 35.96875 50.441406 35.546875 C 49.808594 35.195312 48.964844 35.40625 48.613281 36.039062 C 48.335938 36.460938 48.125 36.8125 47.914062 37.09375 C 47.914062 34.566406 48.683594 28.101562 52.199219 11.589844 C 53.882812 3.933594 55.78125 -4.496094 57.746094 -12.714844 C 64.914062 -12.503906 70.605469 -12.292969 71.726562 -12.011719 C 71.867188 -11.941406 72.078125 -11.871094 72.289062 -11.871094 C 72.710938 -11.871094 73.132812 -12.082031 73.34375 -12.433594 C 73.765625 -13.066406 73.625 -13.910156 73.0625 -14.332031 Z M 40.816406 -15.878906 C 40.183594 -15.878906 39.621094 -15.949219 38.992188 -15.949219 C 41.941406 -21.636719 44.890625 -27.398438 47.703125 -33.019531 C 54.796875 -47 63.507812 -64.210938 66.742188 -67.371094 C 66.8125 -65.898438 66.601562 -61.964844 64.210938 -51.425781 C 63.367188 -47.421875 61.753906 -40.886719 59.925781 -33.300781 C 58.378906 -26.835938 56.90625 -20.933594 55.640625 -15.527344 C 51.707031 -15.597656 46.789062 -15.738281 40.816406 -15.878906 Z M 40.816406 -15.878906 "/></g></g></g><g fill="#545454" fill-opacity="1"><g transform="translate(204.572481, 206.493905)"><g><path d="M 57.046875 -16.367188 C 56.34375 -16.648438 55.570312 -16.367188 55.289062 -15.667969 C 47.28125 1.335938 39.550781 13.839844 32.246094 21.496094 C 26.0625 27.960938 20.515625 30.628906 16.089844 29.296875 C 12.082031 28.03125 8.992188 23.324219 7.445312 16.019531 C 5.691406 8.148438 5.761719 -1.96875 7.585938 -13.207031 C 10.1875 -29.226562 17.703125 -51.917969 26.484375 -62.453125 C 29.085938 -65.546875 31.332031 -67.019531 32.667969 -66.320312 C 35.96875 -64.703125 37.304688 -51.285156 30.066406 -18.757812 C 29.859375 -18.054688 30.347656 -17.351562 31.050781 -17.140625 C 31.824219 -17 32.527344 -17.492188 32.667969 -18.195312 C 37.375 -39.203125 41.378906 -65.054688 33.863281 -68.777344 C 32.035156 -69.691406 28.945312 -69.621094 24.449219 -64.210938 C 18.828125 -57.46875 14.542969 -47.421875 11.941406 -40.113281 C 8.78125 -31.472656 6.253906 -21.777344 4.917969 -13.628906 C 0.984375 10.46875 5.199219 28.734375 15.316406 31.894531 C 16.296875 32.175781 17.351562 32.316406 18.40625 32.316406 C 29.507812 32.316406 43.628906 15.597656 57.675781 -14.542969 C 58.027344 -15.246094 57.746094 -16.019531 57.046875 -16.367188 Z M 57.046875 -16.367188 "/></g></g></g></svg>